<mxfile host="Electron" modified="2023-11-28T15:03:52.810Z" agent="Mozilla/5.0 (Macintosh; Intel Mac OS X 10_15_7) AppleWebKit/537.36 (KHTML, like Gecko) draw.io/21.2.8 Chrome/112.0.5615.165 Electron/24.2.0 Safari/537.36" etag="nsDWIZ_7mHZljul5tjSF" version="21.2.8" type="device">
  <diagram name="Page-1" id="9vSpEMNM8aHxPnmo5Cww">
    <mxGraphModel dx="1114" dy="755" grid="1" gridSize="10" guides="1" tooltips="1" connect="1" arrows="1" fold="1" page="1" pageScale="1" pageWidth="1169" pageHeight="827" math="0" shadow="0">
      <root>
        <mxCell id="0" />
        <mxCell id="1" parent="0" />
        <mxCell id="HuAcdHSceIwbL1ijk9Ny-22" style="edgeStyle=orthogonalEdgeStyle;rounded=0;orthogonalLoop=1;jettySize=auto;html=1;exitX=1;exitY=0.5;exitDx=0;exitDy=0;entryX=0;entryY=0.75;entryDx=0;entryDy=0;curved=1;" edge="1" parent="1" source="HuAcdHSceIwbL1ijk9Ny-10" target="HuAcdHSceIwbL1ijk9Ny-19">
          <mxGeometry relative="1" as="geometry" />
        </mxCell>
        <mxCell id="HuAcdHSceIwbL1ijk9Ny-10" value="PLL Fractional register" style="rounded=0;whiteSpace=wrap;html=1;" vertex="1" parent="1">
          <mxGeometry x="680" y="300" width="140" height="20" as="geometry" />
        </mxCell>
        <mxCell id="HuAcdHSceIwbL1ijk9Ny-28" style="edgeStyle=orthogonalEdgeStyle;rounded=0;orthogonalLoop=1;jettySize=auto;html=1;exitX=1;exitY=0.5;exitDx=0;exitDy=0;entryX=0;entryY=0.25;entryDx=0;entryDy=0;curved=1;" edge="1" parent="1" source="HuAcdHSceIwbL1ijk9Ny-18" target="HuAcdHSceIwbL1ijk9Ny-19">
          <mxGeometry relative="1" as="geometry" />
        </mxCell>
        <mxCell id="HuAcdHSceIwbL1ijk9Ny-18" value="PLL Integer register" style="rounded=0;whiteSpace=wrap;html=1;" vertex="1" parent="1">
          <mxGeometry x="680" y="260" width="140" height="20" as="geometry" />
        </mxCell>
        <mxCell id="HuAcdHSceIwbL1ijk9Ny-20" style="edgeStyle=orthogonalEdgeStyle;rounded=0;orthogonalLoop=1;jettySize=auto;html=1;exitX=1;exitY=0.5;exitDx=0;exitDy=0;" edge="1" parent="1" source="HuAcdHSceIwbL1ijk9Ny-19">
          <mxGeometry relative="1" as="geometry">
            <mxPoint x="1040" y="290" as="targetPoint" />
          </mxGeometry>
        </mxCell>
        <mxCell id="HuAcdHSceIwbL1ijk9Ny-25" style="edgeStyle=orthogonalEdgeStyle;rounded=0;orthogonalLoop=1;jettySize=auto;html=1;exitX=1;exitY=0.5;exitDx=0;exitDy=0;entryX=0.875;entryY=0.5;entryDx=0;entryDy=0;entryPerimeter=0;" edge="1" parent="1" source="HuAcdHSceIwbL1ijk9Ny-19" target="HuAcdHSceIwbL1ijk9Ny-24">
          <mxGeometry relative="1" as="geometry">
            <Array as="points">
              <mxPoint x="1000" y="289" />
              <mxPoint x="1000" y="450" />
            </Array>
          </mxGeometry>
        </mxCell>
        <mxCell id="HuAcdHSceIwbL1ijk9Ny-19" value="Application PLL" style="rounded=0;whiteSpace=wrap;html=1;" vertex="1" parent="1">
          <mxGeometry x="860" y="260" width="120" height="60" as="geometry" />
        </mxCell>
        <mxCell id="HuAcdHSceIwbL1ijk9Ny-30" style="edgeStyle=orthogonalEdgeStyle;rounded=0;orthogonalLoop=1;jettySize=auto;html=1;exitX=0.16;exitY=0.55;exitDx=0;exitDy=0;exitPerimeter=0;entryX=0.55;entryY=0.95;entryDx=0;entryDy=0;entryPerimeter=0;" edge="1" parent="1" source="HuAcdHSceIwbL1ijk9Ny-24" target="HuAcdHSceIwbL1ijk9Ny-29">
          <mxGeometry relative="1" as="geometry">
            <Array as="points">
              <mxPoint x="547" y="457" />
            </Array>
          </mxGeometry>
        </mxCell>
        <mxCell id="HuAcdHSceIwbL1ijk9Ny-24" value="Controller" style="ellipse;shape=cloud;whiteSpace=wrap;html=1;" vertex="1" parent="1">
          <mxGeometry x="670" y="380" width="230" height="140" as="geometry" />
        </mxCell>
        <mxCell id="HuAcdHSceIwbL1ijk9Ny-31" style="edgeStyle=orthogonalEdgeStyle;rounded=0;orthogonalLoop=1;jettySize=auto;html=1;exitX=0.875;exitY=0.5;exitDx=0;exitDy=0;exitPerimeter=0;entryX=0;entryY=0.5;entryDx=0;entryDy=0;" edge="1" parent="1" source="HuAcdHSceIwbL1ijk9Ny-29" target="HuAcdHSceIwbL1ijk9Ny-10">
          <mxGeometry relative="1" as="geometry" />
        </mxCell>
        <mxCell id="HuAcdHSceIwbL1ijk9Ny-29" value="Sigma Delta Modulator&lt;br&gt;Task" style="ellipse;shape=cloud;whiteSpace=wrap;html=1;" vertex="1" parent="1">
          <mxGeometry x="420" y="240" width="230" height="140" as="geometry" />
        </mxCell>
      </root>
    </mxGraphModel>
  </diagram>
</mxfile>
